<svg width="500" height="606" viewBox="0 0 500 606" fill="none" xmlns="http://www.w3.org/2000/svg">
<g id="Group 15">
<g id="Path">
<g id="Mask" filter="url(#filter0_d_0_1159)">
<rect x="25" y="46" width="224" height="309" rx="13" fill="white"/>
</g>
<mask id="mask0_0_1159" style="mask-type:alpha" maskUnits="userSpaceOnUse" x="25" y="46" width="224" height="309">
<rect id="Mask_2" x="25" y="46" width="224" height="309" rx="13" fill="white"/>
</mask>
<g mask="url(#mask0_0_1159)">
<path id="Path 3" fill-rule="evenodd" clip-rule="evenodd" d="M-11.8262 286.688L81.5 255.026L137 173.171L193.5 191.18L268.669 74.509V315L-11.8262 314V286.688Z" fill="url(#paint0_linear_0_1159)"/>
<path id="Path 3 Copy" d="M-11.8262 286.688L81.5 255.026L137 173.171L193.5 191.18L268.669 74.509V315" stroke="#5175FF" stroke-width="2"/>
<rect id="Rectangle" opacity="0.152227" x="137" y="46" width="1" height="250" fill="#5175FF"/>
<rect id="Rectangle Copy 7" opacity="0.152227" x="81" y="46" width="1" height="250" fill="#5175FF"/>
<rect id="Rectangle Copy 8" opacity="0.152227" x="194" y="46" width="1" height="250" fill="#5175FF"/>
<circle id="Oval" cx="137" cy="173" r="6" fill="#5175FF"/>
<circle id="Oval Copy 5" opacity="0.25" cx="137" cy="173" r="17.5" stroke="#5175FF"/>
<circle id="Oval Copy" cx="81" cy="255" r="6" fill="#5175FF"/>
<circle id="Oval Copy 2" cx="194" cy="191" r="6" fill="#5175FF"/>
<circle id="Oval Copy 3" cx="249" cy="106" r="6" fill="#5175FF"/>
<circle id="Oval Copy 4" cx="25" cy="274" r="6" fill="#5175FF"/>
<g id="Group 4">
<path id="Jan" opacity="0.5" d="M128.476 338.934L128.369 337.537C129.425 337.537 129.953 337.088 129.953 336.189V328.943H131.597V336.087C131.597 337.068 131.344 337.788 130.839 338.246C130.338 338.704 129.55 338.934 128.476 338.934ZM132.821 335.523C132.821 335.165 132.923 334.844 133.127 334.562C133.335 334.279 133.62 334.055 133.981 333.89C134.343 333.725 134.757 333.643 135.222 333.643C135.369 333.643 135.523 333.652 135.684 333.67C135.849 333.688 136.014 333.711 136.178 333.74C136.06 333.156 135.636 332.864 134.905 332.864C134.472 332.864 134.037 333.027 133.6 333.353L133.068 332.048C133.441 331.869 133.808 331.736 134.169 331.65C134.531 331.564 134.875 331.521 135.201 331.521C135.72 331.521 136.169 331.62 136.549 331.817C136.932 332.01 137.229 332.286 137.44 332.644C137.652 332.999 137.757 333.416 137.757 333.896V337H136.458L136.355 336.425C136.155 336.637 135.91 336.803 135.62 336.925C135.333 337.047 135.018 337.107 134.674 337.107C134.13 337.107 133.684 336.961 133.337 336.667C132.993 336.373 132.821 335.992 132.821 335.523ZM134.368 335.168C134.368 335.347 134.436 335.493 134.572 335.604C134.712 335.711 134.895 335.765 135.12 335.765C135.428 335.765 135.686 335.672 135.894 335.485C136.105 335.299 136.21 335.07 136.21 334.798V334.69C136.078 334.647 135.935 334.613 135.781 334.588C135.63 334.563 135.482 334.551 135.335 334.551C135.031 334.551 134.792 334.604 134.621 334.712C134.452 334.819 134.368 334.972 134.368 335.168ZM139.052 337V331.629H140.405L140.47 332.284C140.681 332.041 140.933 331.853 141.227 331.72C141.524 331.588 141.85 331.521 142.205 331.521C142.831 331.521 143.331 331.729 143.703 332.145C144.076 332.556 144.262 333.131 144.262 333.869V337H142.709V334.169C142.709 333.299 142.384 332.864 141.732 332.864C141.395 332.864 141.121 332.988 140.91 333.235C140.702 333.482 140.599 333.829 140.599 334.277V337H139.052Z" fill="#747B95"/>
<path id="Dec" opacity="0.5" d="M74.0068 337.011H71.4717V328.954H74.0068C75.5895 328.954 76.8052 329.305 77.6538 330.007C78.5024 330.705 78.9268 331.693 78.9268 332.972C78.9268 334.254 78.5024 335.247 77.6538 335.953C76.8052 336.658 75.5895 337.011 74.0068 337.011ZM74.0444 335.561C75.0828 335.561 75.8778 335.335 76.4292 334.884C76.9842 334.429 77.2617 333.792 77.2617 332.972C77.2617 332.155 76.9842 331.523 76.4292 331.076C75.8778 330.628 75.0828 330.404 74.0444 330.404H73.1152V335.561H74.0444ZM80.9731 334.776C81.0698 335.074 81.2471 335.315 81.5049 335.501C81.7663 335.688 82.0706 335.781 82.418 335.781C82.7904 335.781 83.0983 335.722 83.3418 335.604C83.5889 335.482 83.8127 335.326 84.0132 335.136L84.9478 336.253C84.5324 336.579 84.1206 336.803 83.7124 336.925C83.3078 337.047 82.9193 337.107 82.5469 337.107C81.9525 337.107 81.4279 336.987 80.9731 336.748C80.5184 336.504 80.1621 336.171 79.9043 335.749C79.6465 335.322 79.5176 334.839 79.5176 334.298C79.5176 333.765 79.6411 333.29 79.8882 332.875C80.1353 332.456 80.4718 332.127 80.8979 331.887C81.3276 331.643 81.8146 331.521 82.3589 331.521C82.8996 331.521 83.3794 331.641 83.7983 331.881C84.2209 332.121 84.5539 332.451 84.7974 332.87C85.0409 333.289 85.1626 333.768 85.1626 334.309V334.776H80.9731ZM83.5728 333.917C83.4976 333.602 83.3436 333.348 83.1108 333.154C82.8781 332.961 82.5988 332.864 82.2729 332.864C81.9435 332.864 81.6571 332.963 81.4136 333.16C81.1737 333.357 81.0161 333.609 80.9409 333.917H83.5728ZM90.8989 336.312C90.6375 336.563 90.3242 336.758 89.959 336.898C89.5973 337.038 89.2035 337.107 88.7773 337.107C88.208 337.107 87.6995 336.987 87.252 336.748C86.8079 336.504 86.457 336.173 86.1992 335.754C85.9414 335.331 85.8125 334.852 85.8125 334.314C85.8125 333.777 85.9414 333.299 86.1992 332.88C86.457 332.458 86.8079 332.127 87.252 331.887C87.6995 331.643 88.208 331.521 88.7773 331.521C89.2035 331.521 89.5973 331.591 89.959 331.731C90.3242 331.871 90.6375 332.066 90.8989 332.316L89.8086 333.342C89.5508 333.024 89.207 332.864 88.7773 332.864C88.3835 332.864 88.0576 333.002 87.7998 333.278C87.542 333.554 87.4131 333.899 87.4131 334.314C87.4131 334.73 87.542 335.075 87.7998 335.351C88.0576 335.627 88.3835 335.765 88.7773 335.765C89.207 335.765 89.5508 335.605 89.8086 335.287L90.8989 336.312Z" fill="#747B95"/>
<path id="Nov" opacity="0.5" d="M15.3159 328.943H16.9487L21.0845 334.357V328.943H22.728V337H21.0684L16.9272 331.575V337H15.3159V328.943ZM23.7485 334.314C23.7485 333.777 23.8721 333.299 24.1191 332.88C24.3698 332.458 24.71 332.127 25.1396 331.887C25.5729 331.643 26.0653 331.521 26.6167 331.521C27.1681 331.521 27.6587 331.643 28.0884 331.887C28.5181 332.127 28.8564 332.458 29.1035 332.88C29.3542 333.299 29.4795 333.777 29.4795 334.314C29.4795 334.852 29.3542 335.331 29.1035 335.754C28.8564 336.173 28.5181 336.504 28.0884 336.748C27.6587 336.987 27.1681 337.107 26.6167 337.107C26.0653 337.107 25.5729 336.987 25.1396 336.748C24.71 336.504 24.3698 336.173 24.1191 335.754C23.8721 335.331 23.7485 334.852 23.7485 334.314ZM25.2524 334.314C25.2524 334.73 25.3813 335.075 25.6392 335.351C25.897 335.627 26.2228 335.765 26.6167 335.765C27.0106 335.765 27.3364 335.627 27.5942 335.351C27.8521 335.075 27.981 334.73 27.981 334.314C27.981 333.899 27.8521 333.554 27.5942 333.278C27.3364 333.002 27.0106 332.864 26.6167 332.864C26.2228 332.864 25.897 333.002 25.6392 333.278C25.3813 333.554 25.2524 333.899 25.2524 334.314ZM29.5815 331.629H31.2627L32.2349 334.245C32.285 334.381 32.3405 334.579 32.4014 334.841C32.4658 335.102 32.516 335.339 32.5518 335.55H32.5732C32.6162 335.339 32.6699 335.104 32.7344 334.846C32.8024 334.588 32.8615 334.388 32.9116 334.245L33.8086 331.629H35.436L33.3145 337H31.8105L29.5815 331.629Z" fill="#747B95"/>
<path id="Feb" opacity="0.5" d="M184.003 328.943H188.966V330.394H185.647V332.134H188.751V333.584H185.647V337H184.003V328.943ZM191.281 334.776C191.378 335.074 191.555 335.315 191.813 335.501C192.074 335.688 192.379 335.781 192.726 335.781C193.098 335.781 193.406 335.722 193.65 335.604C193.897 335.482 194.121 335.326 194.321 335.136L195.256 336.253C194.84 336.579 194.429 336.803 194.021 336.925C193.616 337.047 193.227 337.107 192.855 337.107C192.261 337.107 191.736 336.987 191.281 336.748C190.826 336.504 190.47 336.171 190.212 335.749C189.955 335.322 189.826 334.839 189.826 334.298C189.826 333.765 189.949 333.29 190.196 332.875C190.443 332.456 190.78 332.127 191.206 331.887C191.636 331.643 192.123 331.521 192.667 331.521C193.208 331.521 193.688 331.641 194.106 331.881C194.529 332.121 194.862 332.451 195.105 332.87C195.349 333.289 195.471 333.768 195.471 334.309V334.776H191.281ZM193.881 333.917C193.806 333.602 193.652 333.348 193.419 333.154C193.186 332.961 192.907 332.864 192.581 332.864C192.252 332.864 191.965 332.963 191.722 333.16C191.482 333.357 191.324 333.609 191.249 333.917H193.881ZM196.497 337V328.943H198.043V332.161C198.269 331.96 198.527 331.804 198.817 331.693C199.107 331.579 199.42 331.521 199.757 331.521C200.262 331.521 200.711 331.643 201.105 331.887C201.499 332.127 201.809 332.458 202.034 332.88C202.26 333.299 202.373 333.777 202.373 334.314C202.373 334.852 202.26 335.331 202.034 335.754C201.809 336.173 201.499 336.504 201.105 336.748C200.711 336.987 200.262 337.107 199.757 337.107C199.41 337.107 199.085 337.048 198.785 336.93C198.484 336.808 198.221 336.638 197.995 336.42L197.958 337H196.497ZM199.408 335.765C199.802 335.765 200.127 335.627 200.385 335.351C200.643 335.075 200.772 334.73 200.772 334.314C200.772 333.899 200.643 333.554 200.385 333.278C200.127 333.002 199.802 332.864 199.408 332.864C199.014 332.864 198.688 333.002 198.43 333.278C198.172 333.554 198.043 333.899 198.043 334.314C198.043 334.73 198.172 335.075 198.43 335.351C198.688 335.627 199.014 335.765 199.408 335.765Z" fill="#747B95"/>
<path id="Mar" opacity="0.5" d="M239.418 337V328.943H241.556L243.328 332.741C243.41 332.948 243.491 333.158 243.57 333.369C243.652 333.577 243.731 333.786 243.806 333.998C243.881 333.779 243.96 333.562 244.042 333.348C244.128 333.133 244.216 332.931 244.306 332.741L246.073 328.943H248.167V337H246.524C246.524 336.019 246.533 335.061 246.551 334.126C246.569 333.192 246.606 332.256 246.664 331.317C246.57 331.564 246.472 331.81 246.368 332.053C246.268 332.297 246.162 332.537 246.051 332.773L244.692 335.684H242.888L241.534 332.784C241.423 332.512 241.316 332.245 241.212 331.983C241.108 331.718 241.006 331.453 240.906 331.188C240.945 331.812 240.976 332.415 240.997 332.999C241.022 333.579 241.038 334.189 241.045 334.83C241.056 335.471 241.062 336.194 241.062 337H239.418ZM249.397 335.523C249.397 335.165 249.5 334.844 249.704 334.562C249.911 334.279 250.196 334.055 250.558 333.89C250.919 333.725 251.333 333.643 251.798 333.643C251.945 333.643 252.099 333.652 252.26 333.67C252.425 333.688 252.59 333.711 252.754 333.74C252.636 333.156 252.212 332.864 251.481 332.864C251.048 332.864 250.613 333.027 250.176 333.353L249.645 332.048C250.017 331.869 250.384 331.736 250.746 331.65C251.107 331.564 251.451 331.521 251.777 331.521C252.296 331.521 252.745 331.62 253.125 331.817C253.508 332.01 253.805 332.286 254.017 332.644C254.228 332.999 254.333 333.416 254.333 333.896V337H253.034L252.932 336.425C252.731 336.637 252.486 336.803 252.196 336.925C251.909 337.047 251.594 337.107 251.25 337.107C250.706 337.107 250.26 336.961 249.913 336.667C249.569 336.373 249.397 335.992 249.397 335.523ZM250.944 335.168C250.944 335.347 251.012 335.493 251.148 335.604C251.288 335.711 251.471 335.765 251.696 335.765C252.004 335.765 252.262 335.672 252.47 335.485C252.681 335.299 252.787 335.07 252.787 334.798V334.69C252.654 334.647 252.511 334.613 252.357 334.588C252.207 334.563 252.058 334.551 251.911 334.551C251.607 334.551 251.369 334.604 251.197 334.712C251.028 334.819 250.944 334.972 250.944 335.168ZM255.628 337V331.629H256.981L257.057 332.397C257.447 331.813 257.984 331.521 258.668 331.521C258.901 331.521 259.141 331.557 259.388 331.629L259.173 332.966C258.965 332.898 258.761 332.864 258.561 332.864C258.145 332.864 257.81 333.018 257.556 333.326C257.302 333.631 257.175 334.066 257.175 334.631V337H255.628Z" fill="#747B95"/>
<rect id="Rectangle_2" opacity="0.25" x="25" y="314" width="224" height="1" fill="#747B95"/>
<rect id="Rectangle Copy 4" opacity="0.25" x="137" y="306" width="1" height="8" fill="#747B95"/>
<rect id="Rectangle Copy 5" opacity="0.25" x="81" y="306" width="1" height="8" fill="#747B95"/>
<rect id="Rectangle Copy 6" opacity="0.25" x="193" y="306" width="1" height="8" fill="#747B95"/>
</g>
</g>
</g>
<g id="Group 7">
<g id="Group 17">
<g id="Mask_3" filter="url(#filter1_d_0_1159)">
<rect x="25" y="385" width="224" height="146" rx="13" fill="#333950"/>
</g>
<mask id="mask1_0_1159" style="mask-type:alpha" maskUnits="userSpaceOnUse" x="25" y="385" width="224" height="146">
<rect id="Mask_4" x="25" y="385" width="224" height="146" rx="13" fill="white"/>
</mask>
<g mask="url(#mask1_0_1159)">
<g id="Group 17_2">
<g id="Aa">
<path id="Aa_2" fill-rule="evenodd" clip-rule="evenodd" d="M105.64 477.552V480H89.152V477.552L95.128 476.688L111.4 426H118.888L136.168 476.904L141.928 477.552V480H117.376V477.552L123.784 476.832L119.392 462.936H102.832L98.872 476.616L105.64 477.552ZM103.552 460.416H118.6L110.752 435.792L103.552 460.416ZM176.776 481.224C181.384 481.224 184.12 479.568 185.92 475.608L184.696 474.6C183.328 476.76 182.536 477.336 181.456 477.336C180.088 477.336 179.224 476.4 179.224 473.664V454.296C179.224 443.856 175.12 439.464 164.896 439.464C153.736 439.464 147.472 443.784 146.896 450.552C147.472 452.928 149.272 454.224 151.864 454.224C154.6 454.224 157.048 452.28 157.264 447.384L157.768 442.272C158.848 442.056 159.784 441.984 160.792 441.984C166.264 441.984 167.992 444.216 167.992 451.704V456.096C165.472 456.744 162.952 457.392 160.936 457.968C149.344 461.352 145.6 464.88 145.6 471.432C145.6 477.48 149.92 481.224 156.112 481.224C161.872 481.224 164.608 478.992 168.28 474.96C169.36 478.848 172.024 481.224 176.776 481.224ZM156.328 469.992C156.328 474.312 158.344 476.328 161.728 476.328C163.672 476.328 165.328 475.392 167.992 473.016V458.04C166.336 458.472 164.896 458.904 164.032 459.264C158.992 461.352 156.328 464.736 156.328 469.992Z" fill="#FEFEFE"/>
<path id="Decoration" d="M88 485V489H183.132V485H88Z" fill="#FEFEFE"/>
</g>
<g id="Aa Copy" opacity="0.15">
<path id="Decoration_2" d="M-42 456V460H53.132V456H-42Z" fill="#FEFEFE"/>
</g>
<g id="Aa Copy 2" opacity="0.15">
<path id="Decoration_3" d="M218 456V460H313.132V456H218Z" fill="#FEFEFE"/>
</g>
</g>
</g>
</g>
</g>
<g id="Group 8" clip-path="url(#clip0_0_1159)">
<g id="Rectangle Copy" filter="url(#filter2_d_0_1159)">
<rect x="276" width="224" height="483" rx="13" fill="#5175FF"/>
</g>
<rect id="Rectangle_3" opacity="0.15" x="276" y="182" width="224" height="1" fill="white"/>
<g id="Group 3">
<circle id="Oval Copy 6" opacity="0.145996" cx="388" cy="91" r="55.5" stroke="white" stroke-linejoin="round"/>
<path id="87%" d="M360.703 91.5C359.641 90.9896 358.807 90.2865 358.203 89.3906C357.609 88.4844 357.312 87.4323 357.312 86.2344C357.312 85.0052 357.625 83.9323 358.25 83.0156C358.875 82.0885 359.75 81.3698 360.875 80.8594C362.01 80.349 363.333 80.0938 364.844 80.0938C366.344 80.0938 367.656 80.349 368.781 80.8594C369.906 81.3698 370.781 82.0885 371.406 83.0156C372.031 83.9323 372.344 85.0052 372.344 86.2344C372.344 87.4219 372.042 88.4688 371.438 89.375C370.844 90.2812 370.021 90.9896 368.969 91.5C370.271 92.0417 371.286 92.8438 372.016 93.9062C372.755 94.9583 373.125 96.1927 373.125 97.6094C373.125 98.974 372.776 100.172 372.078 101.203C371.391 102.234 370.427 103.036 369.188 103.609C367.948 104.182 366.5 104.469 364.844 104.469C363.188 104.469 361.74 104.182 360.5 103.609C359.26 103.036 358.292 102.234 357.594 101.203C356.906 100.172 356.562 98.974 356.562 97.6094C356.562 96.1927 356.927 94.9583 357.656 93.9062C358.396 92.8438 359.411 92.0417 360.703 91.5ZM361.875 86.6562C361.875 87.5 362.146 88.1823 362.688 88.7031C363.24 89.2135 363.958 89.4688 364.844 89.4688C365.719 89.4688 366.427 89.2135 366.969 88.7031C367.521 88.1823 367.797 87.5 367.797 86.6562C367.797 85.8021 367.521 85.1198 366.969 84.6094C366.427 84.099 365.719 83.8438 364.844 83.8438C363.958 83.8438 363.24 84.099 362.688 84.6094C362.146 85.1198 361.875 85.8021 361.875 86.6562ZM364.844 100.25C365.969 100.25 366.87 99.9479 367.547 99.3438C368.234 98.7396 368.578 97.9479 368.578 96.9688C368.578 95.9792 368.234 95.1875 367.547 94.5938C366.87 93.9896 365.969 93.6875 364.844 93.6875C363.719 93.6875 362.812 93.9896 362.125 94.5938C361.448 95.1875 361.109 95.9792 361.109 96.9688C361.109 97.9479 361.448 98.7396 362.125 99.3438C362.812 99.9479 363.719 100.25 364.844 100.25ZM376.719 84.7812V80.5625H391.906V83.875L383.922 104H378.766L386.359 84.7812H376.719ZM401.297 80.4062C402.401 80.4062 403.333 80.5833 404.094 80.9375C404.854 81.2812 405.469 81.7344 405.938 82.2969C406.406 82.849 406.745 83.4531 406.953 84.1094C407.161 84.7552 407.266 85.3854 407.266 86C407.266 86.6042 407.161 87.2344 406.953 87.8906C406.745 88.5469 406.406 89.1562 405.938 89.7188C405.469 90.2708 404.854 90.724 404.094 91.0781C403.333 91.4219 402.401 91.5938 401.297 91.5938C399.828 91.5938 398.656 91.2969 397.781 90.7031C396.917 90.1094 396.292 89.3802 395.906 88.5156C395.531 87.651 395.344 86.8125 395.344 86C395.344 85.1875 395.531 84.349 395.906 83.4844C396.292 82.6198 396.917 81.8906 397.781 81.2969C398.656 80.7031 399.828 80.4062 401.297 80.4062ZM413.969 80.5312H418.234L403.281 104.016H399.031L413.969 80.5312ZM401.297 88.3125C401.911 88.3125 402.391 88.0885 402.734 87.6406C403.078 87.1927 403.25 86.6458 403.25 86C403.25 85.3542 403.078 84.8073 402.734 84.3594C402.391 83.9115 401.911 83.6875 401.297 83.6875C400.693 83.6875 400.219 83.9115 399.875 84.3594C399.531 84.8073 399.359 85.3542 399.359 86C399.359 86.6458 399.531 87.1927 399.875 87.6406C400.219 88.0885 400.693 88.3125 401.297 88.3125ZM415.938 92.9688C417.042 92.9688 417.974 93.1458 418.734 93.5C419.495 93.8438 420.109 94.2969 420.578 94.8594C421.047 95.4219 421.385 96.0312 421.594 96.6875C421.802 97.3333 421.906 97.9583 421.906 98.5625C421.906 99.375 421.714 100.214 421.328 101.078C420.943 101.943 420.312 102.672 419.438 103.266C418.573 103.859 417.406 104.156 415.938 104.156C414.469 104.156 413.297 103.859 412.422 103.266C411.557 102.672 410.932 101.943 410.547 101.078C410.172 100.214 409.984 99.375 409.984 98.5625C409.984 97.9583 410.089 97.3333 410.297 96.6875C410.505 96.0312 410.839 95.4219 411.297 94.8594C411.766 94.2969 412.38 93.8438 413.141 93.5C413.901 93.1458 414.833 92.9688 415.938 92.9688ZM415.938 100.875C416.552 100.875 417.031 100.656 417.375 100.219C417.719 99.7708 417.891 99.224 417.891 98.5781C417.891 97.9219 417.719 97.3698 417.375 96.9219C417.031 96.474 416.552 96.25 415.938 96.25C415.323 96.25 414.844 96.474 414.5 96.9219C414.167 97.3698 414 97.9219 414 98.5781C414 99.224 414.167 99.7708 414.5 100.219C414.844 100.656 415.323 100.875 415.938 100.875Z" fill="#5CFCD3"/>
</g>
<path id="98k" d="M363.855 229.375C361.902 229.375 360.164 228.965 358.641 228.145C357.117 227.324 355.919 226.198 355.047 224.766C354.188 223.333 353.758 221.693 353.758 219.844C353.758 217.943 354.207 216.263 355.105 214.805C356.017 213.346 357.26 212.201 358.836 211.367C360.424 210.534 362.234 210.117 364.266 210.117C366.375 210.117 368.211 210.573 369.773 211.484C371.349 212.383 372.566 213.652 373.426 215.293C374.285 216.934 374.715 218.854 374.715 221.055C374.715 223.542 374.161 226.035 373.055 228.535C371.961 231.022 370.418 233.353 368.426 235.527C366.447 237.702 364.122 239.557 361.453 241.094L357.859 237.012C359.721 235.931 361.388 234.714 362.859 233.359C364.331 232.005 365.522 230.579 366.434 229.082C366.069 229.173 365.672 229.245 365.242 229.297C364.826 229.349 364.363 229.375 363.855 229.375ZM364.168 224.766C365.444 224.766 366.499 224.323 367.332 223.438C368.178 222.552 368.602 221.432 368.602 220.078C368.602 218.724 368.185 217.604 367.352 216.719C366.531 215.833 365.483 215.391 364.207 215.391C362.944 215.391 361.896 215.84 361.062 216.738C360.229 217.624 359.812 218.75 359.812 220.117C359.812 221.471 360.223 222.585 361.043 223.457C361.863 224.329 362.905 224.766 364.168 224.766ZM384.441 224.375C383.113 223.737 382.072 222.858 381.316 221.738C380.574 220.605 380.203 219.29 380.203 217.793C380.203 216.257 380.594 214.915 381.375 213.77C382.156 212.611 383.25 211.712 384.656 211.074C386.076 210.436 387.729 210.117 389.617 210.117C391.492 210.117 393.133 210.436 394.539 211.074C395.945 211.712 397.039 212.611 397.82 213.77C398.602 214.915 398.992 216.257 398.992 217.793C398.992 219.277 398.615 220.586 397.859 221.719C397.117 222.852 396.089 223.737 394.773 224.375C396.401 225.052 397.671 226.055 398.582 227.383C399.507 228.698 399.969 230.241 399.969 232.012C399.969 233.717 399.533 235.215 398.66 236.504C397.801 237.793 396.596 238.796 395.047 239.512C393.497 240.228 391.688 240.586 389.617 240.586C387.547 240.586 385.737 240.228 384.188 239.512C382.638 238.796 381.427 237.793 380.555 236.504C379.695 235.215 379.266 233.717 379.266 232.012C379.266 230.241 379.721 228.698 380.633 227.383C381.557 226.055 382.827 225.052 384.441 224.375ZM385.906 218.32C385.906 219.375 386.245 220.228 386.922 220.879C387.612 221.517 388.51 221.836 389.617 221.836C390.711 221.836 391.596 221.517 392.273 220.879C392.964 220.228 393.309 219.375 393.309 218.32C393.309 217.253 392.964 216.4 392.273 215.762C391.596 215.124 390.711 214.805 389.617 214.805C388.51 214.805 387.612 215.124 386.922 215.762C386.245 216.4 385.906 217.253 385.906 218.32ZM389.617 235.312C391.023 235.312 392.15 234.935 392.996 234.18C393.855 233.424 394.285 232.435 394.285 231.211C394.285 229.974 393.855 228.984 392.996 228.242C392.15 227.487 391.023 227.109 389.617 227.109C388.211 227.109 387.078 227.487 386.219 228.242C385.372 228.984 384.949 229.974 384.949 231.211C384.949 232.435 385.372 233.424 386.219 234.18C387.078 234.935 388.211 235.312 389.617 235.312ZM404.461 240V210.703H410.086V228.477C410.477 227.865 410.906 227.272 411.375 226.699C411.844 226.113 412.358 225.495 412.918 224.844L416.707 220.469H422.859L415.359 229.238L424.266 240H417.371L411.785 233.398L410.086 235.391V240H404.461Z" fill="white"/>
<g id="Group 2">
<rect id="Rectangle_4" x="308" y="282" width="14" height="14" rx="7" fill="white"/>
<rect id="Rectangle Copy 3" x="337" y="282" width="131" height="14" rx="7" fill="#7DA7FF"/>
</g>
<g id="Group 2 Copy">
<rect id="Rectangle_5" x="308" y="316" width="14" height="14" rx="7" fill="white"/>
<rect id="Rectangle Copy 3_2" x="337" y="316" width="83" height="14" rx="7" fill="#7DA7FF"/>
</g>
<g id="Group 2 Copy 2">
<rect id="Rectangle_6" x="308" y="350" width="14" height="14" rx="7" fill="white"/>
<rect id="Rectangle Copy 3_3" x="337" y="350" width="131" height="14" rx="7" fill="#7DA7FF"/>
</g>
<g id="Group 2 Copy 3">
<rect id="Rectangle_7" x="308" y="384" width="14" height="14" rx="7" fill="white"/>
<rect id="Rectangle Copy 3_4" x="337" y="384" width="79" height="14" rx="7" fill="#7DA7FF"/>
</g>
<g id="Group 2 Copy 4">
<rect id="Rectangle_8" x="308" y="418" width="14" height="14" rx="7" fill="white"/>
<rect id="Rectangle Copy 3_5" x="337" y="418" width="131" height="14" rx="7" fill="#7DA7FF"/>
</g>
<g id="Oval 1" clip-path="url(#clip1_0_1159)">
<g id="Designs">
<path id="Oval_2" d="M366.475 142.284L369.997 134.275C375.932 136.885 382.366 138.25 389 138.25C415.095 138.25 436.25 117.095 436.25 91C436.25 64.9045 415.095 43.75 389 43.75C362.905 43.75 341.75 64.9045 341.75 91H333C333 60.0721 358.072 35 389 35C419.928 35 445 60.0721 445 91C445 121.928 419.928 147 389 147C381.147 147 373.514 145.38 366.475 142.284Z" fill="#5CFCD3"/>
</g>
</g>
</g>
</g>
<defs>
<filter id="filter0_d_0_1159" x="0" y="46" width="274" height="384" filterUnits="userSpaceOnUse" color-interpolation-filters="sRGB">
<feFlood flood-opacity="0" result="BackgroundImageFix"/>
<feColorMatrix in="SourceAlpha" type="matrix" values="0 0 0 0 0 0 0 0 0 0 0 0 0 0 0 0 0 0 127 0" result="hardAlpha"/>
<feMorphology radius="25" operator="erode" in="SourceAlpha" result="effect1_dropShadow_0_1159"/>
<feOffset dy="50"/>
<feGaussianBlur stdDeviation="25"/>
<feColorMatrix type="matrix" values="0 0 0 0 0.293478 0 0 0 0 0.35972 0 0 0 0 0.604535 0 0 0 0.247159 0"/>
<feBlend mode="normal" in2="BackgroundImageFix" result="effect1_dropShadow_0_1159"/>
<feBlend mode="normal" in="SourceGraphic" in2="effect1_dropShadow_0_1159" result="shape"/>
</filter>
<filter id="filter1_d_0_1159" x="0" y="385" width="274" height="221" filterUnits="userSpaceOnUse" color-interpolation-filters="sRGB">
<feFlood flood-opacity="0" result="BackgroundImageFix"/>
<feColorMatrix in="SourceAlpha" type="matrix" values="0 0 0 0 0 0 0 0 0 0 0 0 0 0 0 0 0 0 127 0" result="hardAlpha"/>
<feMorphology radius="25" operator="erode" in="SourceAlpha" result="effect1_dropShadow_0_1159"/>
<feOffset dy="50"/>
<feGaussianBlur stdDeviation="25"/>
<feColorMatrix type="matrix" values="0 0 0 0 0.293478 0 0 0 0 0.35972 0 0 0 0 0.604535 0 0 0 0.247159 0"/>
<feBlend mode="normal" in2="BackgroundImageFix" result="effect1_dropShadow_0_1159"/>
<feBlend mode="normal" in="SourceGraphic" in2="effect1_dropShadow_0_1159" result="shape"/>
</filter>
<filter id="filter2_d_0_1159" x="251" y="0" width="274" height="558" filterUnits="userSpaceOnUse" color-interpolation-filters="sRGB">
<feFlood flood-opacity="0" result="BackgroundImageFix"/>
<feColorMatrix in="SourceAlpha" type="matrix" values="0 0 0 0 0 0 0 0 0 0 0 0 0 0 0 0 0 0 127 0" result="hardAlpha"/>
<feMorphology radius="25" operator="erode" in="SourceAlpha" result="effect1_dropShadow_0_1159"/>
<feOffset dy="50"/>
<feGaussianBlur stdDeviation="25"/>
<feColorMatrix type="matrix" values="0 0 0 0 0.293478 0 0 0 0 0.35972 0 0 0 0 0.604535 0 0 0 0.247159 0"/>
<feBlend mode="normal" in2="BackgroundImageFix" result="effect1_dropShadow_0_1159"/>
<feBlend mode="normal" in="SourceGraphic" in2="effect1_dropShadow_0_1159" result="shape"/>
</filter>
<linearGradient id="paint0_linear_0_1159" x1="-11.8262" y1="74.509" x2="-11.8262" y2="315" gradientUnits="userSpaceOnUse">
<stop stop-color="#024AFF" stop-opacity="0.148028"/>
<stop offset="1" stop-color="#3B77CF" stop-opacity="0.01"/>
</linearGradient>
<clipPath id="clip0_0_1159">
<rect width="224" height="483" fill="white" transform="translate(276)"/>
</clipPath>
<clipPath id="clip1_0_1159">
<rect width="112" height="112" fill="white" transform="translate(333 35)"/>
</clipPath>
</defs>
</svg>
